<?xml version="1.0" encoding="UTF-8" standalone="no"?>
<svg xmlns="http://www.w3.org/2000/svg" version="1.1" xmlns:xlink="http://www.w3.org/1999/xlink" viewBox="0 0 200 200"><rect width="200" height="200" fill="url('#gradient')"></rect><defs><linearGradient id="gradient" gradientTransform="rotate(219 0.5 0.5)"><stop offset="0%" stop-color="#eb097a"></stop><stop offset="100%" stop-color="#3e0964"></stop></linearGradient></defs><g><g fill="#fceaf3" transform="matrix(2.4204858831254104,0,0,2.4204858831254104,7.402474578289471,117.21391195383654)" stroke="#000000" stroke-width="0.6"><path d="M9.89-8.57L9.89-6.03L4.50-6.03L4.50-2.64L10.87-2.64L10.87 0L1.07 0L1.07-14.22L10.89-14.22L10.89-11.57L4.50-11.57L4.50-8.57L9.89-8.57ZM19.60-3.78L19.60-3.78Q19.60-4.53 19.07-4.95Q18.54-5.37 17.20-5.82Q15.86-6.27 15.01-6.69L15.01-6.69Q12.25-8.05 12.25-10.42L12.25-10.42Q12.25-11.60 12.93-12.50Q13.62-13.41 14.88-13.91Q16.14-14.41 17.71-14.41L17.71-14.41Q19.25-14.41 20.46-13.87Q21.68-13.32 22.35-12.31Q23.03-11.30 23.03-10L23.03-10L19.61-10Q19.61-10.87 19.08-11.35Q18.54-11.83 17.64-11.83L17.64-11.83Q16.72-11.83 16.19-11.42Q15.65-11.02 15.65-10.39L15.65-10.39Q15.65-9.84 16.24-9.40Q16.83-8.96 18.30-8.48Q19.78-8.01 20.72-7.46L20.72-7.46Q23.03-6.13 23.03-3.80L23.03-3.80Q23.03-1.93 21.62-0.87Q20.21 0.20 17.76 0.20L17.76 0.20Q16.04 0.20 14.63-0.42Q13.23-1.04 12.52-2.12Q11.82-3.20 11.82-4.61L11.82-4.61L15.25-4.61Q15.25-3.47 15.84-2.92Q16.44-2.38 17.76-2.38L17.76-2.38Q18.61-2.38 19.11-2.75Q19.60-3.12 19.60-3.78ZM32.88-4.81L36.29-4.81Q36.22-3.33 35.49-2.19Q34.76-1.05 33.43-0.43Q32.11 0.20 30.41 0.20L30.41 0.20Q27.61 0.20 26.00-1.63Q24.38-3.46 24.38-6.79L24.38-6.79L24.38-7.49Q24.38-9.58 25.11-11.15Q25.84-12.71 27.21-13.57Q28.57-14.42 30.37-14.42L30.37-14.42Q32.96-14.42 34.53-13.06Q36.10-11.70 36.32-9.31L36.32-9.31L32.90-9.31Q32.86-10.61 32.25-11.17Q31.63-11.74 30.37-11.74L30.37-11.74Q29.09-11.74 28.50-10.78Q27.90-9.82 27.87-7.72L27.87-7.72L27.87-6.72Q27.87-4.44 28.44-3.47Q29.01-2.49 30.41-2.49L30.41-2.49Q31.59-2.49 32.22-3.05Q32.84-3.60 32.88-4.81L32.88-4.81ZM49.95-7.47L49.95-6.82Q49.95-4.74 49.18-3.13Q48.41-1.53 46.99-0.67Q45.57 0.20 43.75 0.20Q41.93 0.20 40.53-0.64Q39.12-1.47 38.33-3.03Q37.55-4.58 37.51-6.59L37.51-6.59L37.51-7.39Q37.51-9.48 38.28-11.08Q39.04-12.68 40.47-13.54Q41.90-14.41 43.73-14.41L43.73-14.41Q45.54-14.41 46.95-13.55Q48.37-12.70 49.16-11.11Q49.94-9.52 49.95-7.47L49.95-7.47ZM46.46-6.76L46.46-7.41Q46.46-9.53 45.76-10.63Q45.05-11.73 43.73-11.73L43.73-11.73Q41.15-11.73 41.01-7.86L41.01-7.86L41.00-6.82Q41.00-4.73 41.69-3.60Q42.38-2.48 43.75-2.48L43.75-2.48Q45.05-2.48 45.75-3.58Q46.46-4.69 46.46-6.76L46.46-6.76ZM59.51 0L57.00-5.02L55.15-5.02L55.15 0L51.72 0L51.72-14.22L57.31-14.22Q59.84-14.22 61.27-13.10Q62.70-11.97 62.70-9.92L62.70-9.92Q62.70-8.44 62.09-7.46Q61.49-6.48 60.21-5.88L60.21-5.88L63.18-0.15L63.18 0L59.51 0ZM55.15-11.57L55.15-7.67L57.31-7.67Q58.29-7.67 58.78-8.18Q59.28-8.69 59.28-9.61Q59.28-10.53 58.78-11.05Q58.28-11.57 57.31-11.57L57.31-11.57L55.15-11.57ZM75.44-14.22L75.44-11.57L71.17-11.57L71.17 0L67.74 0L67.74-11.57L63.55-11.57L63.55-14.22L75.44-14.22Z"></path></g></g></svg> 