<svg xmlns="http://www.w3.org/2000/svg" version="1.1" xmlns:xlink="http://www.w3.org/1999/xlink" viewBox="0 0 200 200"><rect width="200" height="200" fill="url('#gradient')"></rect><defs><linearGradient id="gradient" gradientTransform="rotate(154 0.5 0.5)"><stop offset="0%" stop-color="#464446"></stop><stop offset="100%" stop-color="#901492"></stop></linearGradient></defs><g><g fill="#eee0ee" transform="matrix(1.846179061667691,0,0,1.846179061667691,10.897448043734336,113.66406848354922)" stroke="#f10f98" stroke-width="0.75"><path d="M6.04 0.20L6.04 0.20Q3.60 0.20 2.10-1.25Q0.60-2.71 0.60-5.03L0.60-5.03L0.60-5.30Q0.60-6.92 1.20-8.16Q1.80-9.40 2.95-10.08Q4.10-10.76 5.68-10.76L5.68-10.76Q7.91-10.76 9.20-9.38Q10.49-8.00 10.49-5.53L10.49-5.53L10.49-4.25L3.95-4.25Q4.12-3.36 4.72-2.85Q5.31-2.34 6.26-2.34L6.26-2.34Q7.82-2.34 8.70-3.44L8.70-3.44L10.21-1.66Q9.59-0.81 8.46-0.31Q7.33 0.20 6.04 0.20ZM5.66-8.22L5.66-8.22Q4.22-8.22 3.95-6.31L3.95-6.31L7.27-6.31L7.27-6.56Q7.29-7.35 6.87-7.79Q6.45-8.22 5.66-8.22ZM17.34-2.97L17.34-2.97Q17.34-3.39 16.90-3.64Q16.46-3.90 15.23-4.17Q14.00-4.44 13.20-4.89Q12.40-5.33 11.98-5.97Q11.56-6.60 11.56-7.42L11.56-7.42Q11.56-8.88 12.76-9.82Q13.96-10.76 15.91-10.76L15.91-10.76Q18.00-10.76 19.27-9.81Q20.54-8.87 20.54-7.32L20.54-7.32L17.24-7.32Q17.24-8.59 15.90-8.59L15.90-8.59Q15.38-8.59 15.03-8.31Q14.68-8.02 14.68-7.59L14.68-7.59Q14.68-7.15 15.11-6.88Q15.54-6.60 16.48-6.43Q17.42-6.25 18.13-6.01L18.13-6.01Q20.52-5.19 20.52-3.07L20.52-3.07Q20.52-1.62 19.23-0.71Q17.95 0.20 15.91 0.20L15.91 0.20Q14.55 0.20 13.49-0.29Q12.42-0.78 11.83-1.62Q11.23-2.46 11.23-3.39L11.23-3.39L14.31-3.39Q14.33-2.66 14.79-2.32Q15.26-1.98 16.00-1.98L16.00-1.98Q16.67-1.98 17.01-2.26Q17.34-2.53 17.34-2.97ZM26.52-2.34L26.52-2.34Q27.22-2.34 27.60-2.72Q27.98-3.10 27.97-3.77L27.97-3.77L31.05-3.77Q31.05-2.03 29.81-0.92Q28.56 0.20 26.60 0.20L26.60 0.20Q24.30 0.20 22.97-1.25Q21.64-2.70 21.64-5.25L21.64-5.25L21.64-5.39Q21.64-6.99 22.23-8.22Q22.82-9.44 23.94-10.10Q25.05-10.76 26.57-10.76L26.57-10.76Q28.63-10.76 29.84-9.62Q31.05-8.48 31.05-6.52L31.05-6.52L27.97-6.52Q27.97-7.34 27.57-7.78Q27.17-8.22 26.49-8.22L26.49-8.22Q25.21-8.22 25-6.59L25-6.59Q24.93-6.07 24.93-5.17L24.93-5.17Q24.93-3.57 25.31-2.96Q25.69-2.34 26.52-2.34ZM32.04-4.82L32.03-5.38Q32.03-6.96 32.65-8.20Q33.26-9.43 34.41-10.10Q35.57-10.76 37.12-10.76L37.12-10.76Q39.49-10.76 40.86-9.29Q42.23-7.82 42.23-5.29L42.23-5.29L42.23-5.18Q42.23-2.71 40.85-1.25Q39.48 0.20 37.14 0.20L37.14 0.20Q34.88 0.20 33.52-1.16Q32.15-2.51 32.04-4.82L32.04-4.82ZM35.33-5.77L35.32-5.18Q35.32-3.71 35.78-3.03Q36.24-2.34 37.14-2.34L37.14-2.34Q38.90-2.34 38.94-5.05L38.94-5.05L38.94-5.38Q38.94-8.22 37.12-8.22L37.12-8.22Q35.47-8.22 35.33-5.77L35.33-5.77ZM50.13-10.64L50.07-7.59L48.98-7.67Q47.43-7.67 46.99-6.69L46.99-6.69L46.99 0L43.70 0L43.70-10.57L46.79-10.57L46.89-9.21Q47.72-10.76 49.21-10.76L49.21-10.76Q49.74-10.76 50.13-10.64L50.13-10.64ZM52.29-13.19L55.58-13.19L55.58-10.57L57.31-10.57L57.31-8.28L55.58-8.28L55.58-3.45Q55.58-2.85 55.79-2.62Q56.01-2.38 56.64-2.38L56.64-2.38Q57.13-2.38 57.46-2.44L57.46-2.44L57.46-0.09Q56.57 0.20 55.61 0.20L55.61 0.20Q53.91 0.20 53.10-0.61Q52.29-1.41 52.29-3.04L52.29-3.04L52.29-8.28L50.94-8.28L50.94-10.57L52.29-10.57L52.29-13.19ZM65.04-7.40L65.04-4.85L59.17-4.85L59.17-7.40L65.04-7.40ZM77.41-5.36L77.41-5.20Q77.41-2.60 76.34-1.20Q75.26 0.20 73.31 0.20L73.31 0.20Q71.70 0.20 70.71-1.08L70.71-1.08L70.58 0L67.63 0L67.63-15L70.92-15L70.92-9.72Q71.84-10.76 73.29-10.76L73.29-10.76Q75.26-10.76 76.34-9.35Q77.41-7.93 77.41-5.36L77.41-5.36ZM74.11-5.40L74.11-5.40Q74.11-6.92 73.71-7.57Q73.30-8.22 72.46-8.22L72.46-8.22Q71.35-8.22 70.92-7.37L70.92-7.37L70.92-3.17Q71.34-2.33 72.48-2.33L72.48-2.33Q73.64-2.33 73.96-3.47L73.96-3.47Q74.11-4.02 74.11-5.40ZM88.11 0L84.81 0Q84.64-0.32 84.50-0.95L84.50-0.95Q83.59 0.20 81.96 0.20L81.96 0.20Q80.47 0.20 79.42-0.71Q78.38-1.61 78.38-2.98L78.38-2.98Q78.38-4.70 79.65-5.58Q80.92-6.46 83.34-6.46L83.34-6.46L84.36-6.46L84.36-7.01Q84.36-8.47 83.10-8.47L83.10-8.47Q81.92-8.47 81.92-7.31L81.92-7.31L78.63-7.31Q78.63-8.85 79.94-9.80Q81.24-10.76 83.26-10.76Q85.28-10.76 86.46-9.78Q87.63-8.79 87.66-7.07L87.66-7.07L87.66-2.39Q87.68-0.94 88.11-0.17L88.11-0.17L88.11 0ZM82.75-2.15L82.75-2.15Q83.37-2.15 83.77-2.41Q84.18-2.68 84.36-3.01L84.36-3.01L84.36-4.70L83.40-4.70Q81.68-4.70 81.68-3.15L81.68-3.15Q81.68-2.71 81.98-2.43Q82.29-2.15 82.75-2.15ZM95.93-10.64L95.87-7.59L94.79-7.67Q93.23-7.67 92.79-6.69L92.79-6.69L92.79 0L89.50 0L89.50-10.57L92.59-10.57L92.70-9.21Q93.53-10.76 95.01-10.76L95.01-10.76Q95.54-10.76 95.93-10.64L95.93-10.64Z"></path></g></g></svg>