<?xml version="1.0" encoding="UTF-8" standalone="no"?>
<svg width="512" height="512" viewBox="0 0 512 512" fill="none" xmlns="http://www.w3.org/2000/svg">
  <!-- Определение градиентов -->
  <defs>
    <linearGradient id="paint0_linear" x1="100" y1="100" x2="412" y2="412" gradientUnits="userSpaceOnUse">
      <stop offset="0" stop-color="#ce00ff"/>
      <stop offset="1" stop-color="#3f0015"/>
    </linearGradient>
    <linearGradient id="paint1_linear" x1="256" y1="100" x2="256" y2="412" gradientUnits="userSpaceOnUse">
      <stop offset="0" stop-color="#ffd1fc"/>
      <stop offset="1" stop-color="#ce00ff"/>
    </linearGradient>
    <filter id="glow" x="-20%" y="-20%" width="140%" height="140%">
      <feGaussianBlur stdDeviation="4" result="blur"/>
      <feComposite in="SourceGraphic" in2="blur" operator="over"/>
    </filter>
  </defs>
  
  <!-- Фон иконки -->
  <rect width="512" height="512" rx="120" fill="#1a1a1a"/>
  
  <!-- Декоративная рамка -->
  <rect x="30" y="30" width="452" height="452" rx="90" stroke="url(#paint0_linear)" stroke-width="8" fill="none" opacity="0.5"/>
  
  <!-- Стилизованный бокал шампанского (символ элегантности) -->
  <path d="M256 400 L256 320 M210 320 Q256 320 302 320 T302 260 Q302 190 256 190 Q210 190 210 260 Q210 320 256 320" 
        stroke="url(#paint1_linear)" stroke-width="12" fill="none" stroke-linecap="round" filter="url(#glow)"/>
  
  <!-- Буква E в стилизованном виде -->
  <path d="M170 150 L230 150 M170 150 L170 260 M170 205 L220 205 M170 260 L230 260" 
        stroke="url(#paint0_linear)" stroke-width="18" stroke-linecap="round" filter="url(#glow)"/>
  
  <!-- Буква B в стилизованном виде -->
  <path d="M280 150 L280 260 M280 150 C330 150 350 170 350 190 C350 210 330 205 280 205 M280 205 C330 205 360 220 360 260 L280 260" 
        stroke="url(#paint0_linear)" stroke-width="18" stroke-linecap="round" filter="url(#glow)"/>
  
  <!-- Декоративная точка -->
  <circle cx="256" cy="100" r="12" fill="url(#paint1_linear)" filter="url(#glow)"/>
</svg> 